HIERARCHY
ROOT Hips
{
	OFFSET 0.00000 0.00000 0.00000
	CHANNELS 6 Xposition Yposition Zposition Zrotation Yrotation Xrotation 
	JOINT RightUpLegDummy
	{
		OFFSET 0 0 0
		CHANNELS 3 Zrotation Yrotation Xrotation
		JOINT RightUpLeg
		{
			OFFSET -3.52197 -3.41223 0.04002
			CHANNELS 3 Zrotation Yrotation Xrotation
			JOINT RightLeg
			{
				OFFSET 0.00006 -17.42390 1.60435
				CHANNELS 3 Zrotation Yrotation Xrotation
				JOINT RightFoot
				{
					OFFSET 0.06154 -16.50078 -1.63900
					CHANNELS 3 Zrotation Yrotation Xrotation
					JOINT RightToes
					{
						OFFSET 0.00298 -1.73825 3.34613
						CHANNELS 3 Zrotation Yrotation Xrotation
						End Site
						{
							OFFSET 0.00480 -0.05416 3.85043
						}
					}
				}
			}
		}
	}
	JOINT SpineDummy
	{
		OFFSET 0 0 0
		CHANNELS 3 Zrotation Yrotation Xrotation
		JOINT Spine
		{
			OFFSET 0.00000 4.68130 0.00000
			CHANNELS 3 Zrotation Yrotation Xrotation
			JOINT Spine1
			{
				OFFSET -0.00000 10.10138 0.05002
				CHANNELS 3 Zrotation Yrotation Xrotation
				JOINT HEadDummy
				{
					OFFSET 0 0 0
					CHANNELS 3 Zrotation Yrotation Xrotation
					JOINT Head
					{
						OFFSET -0.00000 3.43865 0.00438
						CHANNELS 3 Zrotation Yrotation Xrotation
						End Site
						{
							OFFSET -0.11417 5.02924 0.98962
						}
					}
				}
				JOINT LeftShoulder1Dummy
				{
					OFFSET 0 0 0
					CHANNELS 3 Zrotation Yrotation Xrotation
					JOINT LeftShoulder1
					{
						OFFSET 3.53937 -0.14262 -0.08662
						CHANNELS 3 Zrotation Yrotation Xrotation
						JOINT LeftArm
						{
							OFFSET 4.04833 -0.00133 0.12681
							CHANNELS 3 Zrotation Yrotation Xrotation
							JOINT LeftForeArm
							{
								OFFSET 10.33880 -0.01036 -0.55515
								CHANNELS 3 Zrotation Yrotation Xrotation
								JOINT LeftHand
								{
									OFFSET 8.69677 0.07543 0.40060
									CHANNELS 3 Zrotation Yrotation Xrotation
									End Site
									{
										OFFSET 5.28377 -0.21905 0.59205
									}
								}
							}
						}
					}
				}
				JOINT RightShoulderDummy
				{
					OFFSET 0 0 0
					CHANNELS 3 Zrotation Yrotation Xrotation
					JOINT RightShoulder
					{
						OFFSET -3.53937 -0.14262 -0.08660
						CHANNELS 3 Zrotation Yrotation Xrotation
						JOINT RightArm
						{
							OFFSET -4.04833 -0.00133 0.12683
							CHANNELS 3 Zrotation Yrotation Xrotation
							JOINT RightForeArm
							{
								OFFSET -10.37987 -0.01039 -0.55511
								CHANNELS 3 Zrotation Yrotation Xrotation
								JOINT RightHand
								{
									OFFSET -8.67398 0.07538 0.40058
									CHANNELS 3 Zrotation Yrotation Xrotation
									End Site
									{
										OFFSET -5.24810 -0.21916 0.59204
									}
								}
							}
						}
					}
				}
			}
		}
	}
	JOINT LeftUpLegDummy
	{
		OFFSET 0 0 0
		CHANNELS 3 Zrotation Yrotation Xrotation
		JOINT LeftUpLeg
		{
			OFFSET 3.52197 -3.41223 0.04002
			CHANNELS 3 Zrotation Yrotation Xrotation
			JOINT LeftLeg
			{
				OFFSET -0.00012 -17.42399 1.60337
				CHANNELS 3 Zrotation Yrotation Xrotation
				JOINT LeftFoot
				{
					OFFSET -0.09972 -16.50070 -1.63802
					CHANNELS 3 Zrotation Yrotation Xrotation
					JOINT LeftToes
					{
						OFFSET -0.01575 -1.73823 3.34611
						CHANNELS 3 Zrotation Yrotation Xrotation
						End Site
						{
							OFFSET 0.03150 -0.01868 3.85031
						}
					}
				}
			}
		}
	}
}
MOTION
Frames: 11
Frame Time: 0.033333
-72.0732 41.0951 -3.4003 37.3544 86.2137 40.0271 0.0000 0.0000 0.0000 -2.6696 -5.9541 -1.4074 -2.2068 -10.6095 6.5931 3.6865 -0.1839 -6.3001 -0.0000 -0.0000 0.0000 0.0000 0.0000 0.0000 -1.4103 -1.3525 -15.7647 -0.4436 -0.8993 21.9503 0.0000 0.0000 0.0000 -0.5398 5.5602 -7.6993 0.0000 0.0000 0.0000 -19.2304 -4.1545 1.9709 -58.7961 -16.9616 -18.6372 -11.5510 4.1997 41.0342 14.2188 -2.3677 -0.9313 0.0000 0.0000 0.0000 19.2990 2.9029 1.6533 60.0909 18.3291 -7.9046 11.7302 5.1544 37.8466 -5.9525 2.5435 -0.3849 0.0000 0.0000 0.0000 -4.6950 -1.7602 -3.0142 -1.2708 17.0440 -0.3898 5.0076 -0.4719 -0.5113 -0.0000 -0.0000 -0.0000
-72.0725 41.0951 -3.4003 36.8435 86.2253 39.5641 0.0000 0.0000 0.0000 -2.6337 -5.9337 -1.4463 -2.1908 -10.6027 6.5681 3.6609 -0.1823 -6.2790 -0.0000 -0.0000 0.0000 0.0000 0.0000 0.0000 -1.5298 -1.3170 -15.7840 -0.2067 -0.9370 21.8748 0.0000 0.0000 0.0000 -0.5670 5.5130 -7.5955 0.0000 0.0000 0.0000 -19.3819 -4.2430 2.0046 -58.7071 -16.8996 -18.6477 -11.5619 4.1959 41.1816 14.6922 -2.5436 -0.9844 0.0000 0.0000 0.0000 19.2355 2.8713 1.6414 60.0509 18.2555 -7.8544 11.7403 5.2120 37.7353 -5.9484 2.5384 -0.3849 0.0000 0.0000 0.0000 -4.6237 -1.7359 -3.0769 -1.3062 16.6938 -0.3815 4.6819 -0.4438 -0.4511 -0.0000 -0.0000 -0.0000
-72.0686 41.0951 -3.4006 35.9297 86.1913 38.7023 0.0000 0.0000 0.0000 -2.6086 -5.9198 -1.5082 -2.1718 -10.5262 6.5764 3.6568 -0.1821 -6.2669 -0.0000 -0.0000 0.0000 0.0000 0.0000 0.0000 -1.8265 -1.2350 -15.6884 0.3216 -1.0119 21.5943 0.0000 0.0000 0.0000 -0.7206 5.4087 -7.3721 0.0000 0.0000 0.0000 -19.7352 -4.4397 2.0815 -58.4890 -16.7080 -18.6902 -11.5892 4.1631 41.3565 15.2462 -2.7277 -1.0454 0.0000 0.0000 0.0000 19.0782 2.8220 1.6195 59.9971 18.0456 -7.8096 11.7209 5.3722 37.6859 -5.8696 2.6709 -0.3872 0.0000 0.0000 0.0000 -4.5450 -1.7131 -3.1020 -1.3790 16.2893 -0.4581 4.2449 -0.4060 -0.3608 -0.0000 -0.0000 -0.0000
-72.0605 41.0951 -3.4025 34.9980 86.1050 37.7742 0.0000 0.0000 0.0000 -2.6172 -5.9178 -1.5234 -2.1618 -10.4052 6.5945 3.6821 -0.1837 -6.2706 -0.0000 -0.0000 0.0000 0.0000 0.0000 0.0000 -1.8988 -1.1823 -15.7270 0.4945 -1.0093 21.5154 0.0000 0.0000 0.0000 -0.8567 5.4731 -7.1902 0.0000 0.0000 0.0000 -19.8909 -4.6033 2.1361 -58.3655 -16.5208 -18.7689 -11.5873 4.0501 41.2233 15.3564 -2.6547 -1.0442 0.0000 0.0000 0.0000 19.0142 2.8340 1.6188 59.9591 17.9431 -7.8248 11.6824 5.4818 37.9013 -5.7931 2.9753 -0.3917 0.0000 0.0000 0.0000 -4.5236 -1.6971 -3.0510 -1.4318 16.2073 -0.5509 4.0770 -0.3913 -0.3223 -0.0000 -0.0000 -0.0000
-72.0515 41.0950 -3.4067 34.3036 86.0319 37.0491 0.0000 0.0000 0.0000 -2.6288 -5.9133 -1.4784 -2.1587 -10.3334 6.5718 3.6896 -0.1842 -6.2705 -0.0000 -0.0000 0.0000 0.0000 0.0000 0.0000 -1.6129 -1.1910 -15.9475 0.1118 -0.9093 21.6972 0.0000 0.0000 0.0000 -0.8208 5.6624 -7.0042 0.0000 0.0000 0.0000 -19.6941 -4.7276 2.1537 -58.4215 -16.3884 -18.8938 -11.5388 3.9440 40.8739 15.2231 -2.4681 -1.0116 0.0000 0.0000 0.0000 19.1863 2.9077 1.6479 59.8436 17.9749 -7.7153 11.6953 5.5514 38.0139 -5.6862 3.1493 -0.3912 0.0000 0.0000 0.0000 -4.5348 -1.6799 -2.9999 -1.4317 16.3329 -0.5447 4.1331 -0.3953 -0.3483 -0.0000 -0.0000 -0.0000
-72.0469 41.0948 -3.4118 33.7087 85.9872 36.4363 0.0000 0.0000 0.0000 -2.6227 -5.9020 -1.4459 -2.1605 -10.3152 6.5393 3.6570 -0.1821 -6.2698 -0.0000 -0.0000 0.0000 0.0000 0.0000 0.0000 -1.4990 -1.1713 -15.7992 -0.0274 -0.8541 21.3839 0.0000 0.0000 0.0000 -0.7723 5.5957 -6.5527 0.0000 0.0000 0.0000 -19.6210 -4.9697 2.2114 -58.3915 -16.1328 -19.0488 -11.5066 3.9890 40.7894 15.3002 -2.4698 -1.0172 0.0000 0.0000 0.0000 19.4481 2.9008 1.6616 59.5424 17.7659 -7.1947 11.7870 5.8336 37.4521 -5.4578 2.9216 -0.3656 0.0000 0.0000 0.0000 -4.5361 -1.6652 -3.0075 -1.4041 16.4206 -0.4602 4.1629 -0.3967 -0.3931 -0.0000 -0.0000 -0.0000
-72.0485 41.0946 -3.4155 32.8590 85.9098 35.5999 0.0000 0.0000 0.0000 -2.6107 -5.8848 -1.4883 -2.1700 -10.2566 6.5590 3.6180 -0.1796 -6.2711 -0.0000 -0.0000 0.0000 0.0000 0.0000 0.0000 -1.9494 -1.0596 -15.0513 0.6596 -0.9419 20.2849 0.0000 0.0000 0.0000 -0.9580 5.2809 -5.8514 0.0000 0.0000 0.0000 -20.0570 -5.3199 2.3385 -58.0788 -15.7197 -19.1638 -11.5415 4.1569 41.1218 15.5675 -2.6033 -1.0525 0.0000 0.0000 0.0000 19.5024 2.7241 1.6191 59.1962 17.2339 -6.3789 11.8870 6.3198 36.3743 -5.2727 2.4726 -0.3355 0.0000 0.0000 0.0000 -4.5232 -1.6529 -3.0486 -1.3956 16.4651 -0.4056 4.1104 -0.3907 -0.4211 -0.0000 -0.0000 -0.0000
-72.0522 41.0944 -3.4167 31.7772 85.7802 34.5386 0.0000 0.0000 0.0000 -2.6052 -5.8605 -1.5704 -2.1868 -10.1279 6.6209 3.6067 -0.1788 -6.2773 -0.0000 -0.0000 0.0000 0.0000 0.0000 0.0000 -2.4863 -0.9577 -14.4953 1.4677 -1.0647 19.4700 0.0000 0.0000 0.0000 -1.2809 5.1625 -5.2508 0.0000 0.0000 0.0000 -20.5844 -5.5004 2.4304 -57.7379 -15.4907 -19.1788 -11.5890 4.2718 41.4542 15.6248 -2.5764 -1.0531 0.0000 0.0000 0.0000 19.2844 2.5159 1.5528 59.1144 16.9532 -5.9382 11.9388 6.5313 35.7519 -5.3750 2.2211 -0.3330 0.0000 0.0000 0.0000 -4.5150 -1.6368 -3.0693 -1.4124 16.5783 -0.4182 4.0968 -0.3884 -0.4343 -0.0000 -0.0000 -0.0000
-72.0541 41.0942 -3.4175 30.9366 85.6675 33.7002 0.0000 0.0000 0.0000 -2.6037 -5.8358 -1.6182 -2.2033 -10.0138 6.6678 3.6123 -0.1791 -6.2902 -0.0000 -0.0000 0.0000 0.0000 0.0000 0.0000 -2.4524 -1.0067 -14.8893 1.4280 -1.1029 19.9367 0.0000 0.0000 0.0000 -1.4420 5.1608 -4.8372 0.0000 0.0000 0.0000 -20.5794 -5.3665 2.3941 -57.7154 -15.7015 -19.1278 -11.5705 4.2572 41.4520 15.3659 -2.4254 -1.0161 0.0000 0.0000 0.0000 19.0470 2.4711 1.5280 59.3391 17.3194 -6.2179 11.9611 6.2247 36.0629 -5.5996 2.2785 -0.3500 0.0000 0.0000 0.0000 -4.5198 -1.6257 -3.0636 -1.4184 16.7269 -0.4360 4.1499 -0.3906 -0.4412 -0.0000 -0.0000 -0.0000
-72.0553 41.0939 -3.4180 30.6127 85.6252 33.3665 0.0000 0.0000 0.0000 -2.6043 -5.8223 -1.6255 -2.2131 -9.9782 6.6869 3.6108 -0.1790 -6.3033 -0.0000 -0.0000 0.0000 0.0000 0.0000 0.0000 -2.0246 -1.1569 -15.7411 0.7986 -1.0806 21.0094 0.0000 0.0000 0.0000 -1.4319 4.7053 -4.3334 0.0000 0.0000 0.0000 -20.1908 -5.1272 2.2981 -57.9112 -16.0839 -19.0925 -11.5109 4.1814 41.3079 15.0955 -2.4676 -1.0028 0.0000 0.0000 0.0000 18.9714 2.5912 1.5545 59.5964 17.8565 -6.5987 11.9491 5.8807 36.5532 -5.5625 2.4077 -0.3527 0.0000 0.0000 0.0000 -4.5276 -1.6318 -3.0662 -1.3934 16.8091 -0.4072 4.1821 -0.3916 -0.4459 -0.0000 -0.0000 -0.0000
-72.0590 41.0937 -3.4183 30.5869 85.6260 33.3384 0.0000 0.0000 0.0000 -2.6058 -5.8192 -1.6345 -2.2163 -9.9857 6.7003 3.6116 -0.1790 -6.3144 -0.0000 -0.0000 0.0000 0.0000 0.0000 0.0000 -1.8692 -1.2625 -16.0776 0.5667 -1.1253 21.4029 0.0000 0.0000 0.0000 -1.4974 4.0186 -3.7638 0.0000 0.0000 0.0000 -20.0619 -5.0267 2.2611 -57.9594 -16.2298 -19.0930 -11.4947 4.0810 41.3218 15.0030 -2.7481 -1.0308 0.0000 0.0000 0.0000 18.9154 2.7368 1.5883 59.7138 17.9270 -6.5722 11.9075 5.9598 36.5649 -5.3218 2.4486 -0.3380 0.0000 0.0000 0.0000 -4.5296 -1.6410 -3.0894 -1.3672 16.8200 -0.3616 4.1599 -0.3893 -0.4540 -0.0000 -0.0000 -0.0000
